{
	"asset":{
		"generator":"Khronos glTF Blender I/O v4.3.47",
		"version":"2.0"
	},
	"scene":0,
	"scenes":[
		{
			"name":"Scene",
			"nodes":[
				0
			]
		}
	],
	"nodes":[
		{
			"mesh":0,
			"name":"Energy_Sphere_Asset"
		}
	],
	"materials":[
		{
			"alphaMode":"BLEND",
			"doubleSided":true,
			"name":"Energy_Sphere_Material",
			"pbrMetallicRoughness":{
				"baseColorFactor":[
					1,
					1,
					1,
					0.8999999761581421
				],
				"metallicFactor":0.800000011920929,
				"roughnessFactor":0.20000000298023224
			}
		}
	],
	"meshes":[
		{
			"name":"Sphere.002",
			"primitives":[
				{
					"attributes":{
						"POSITION":0,
						"NORMAL":1,
						"TEXCOORD_0":2
					},
					"indices":3,
					"material":0
				}
			]
		}
	],
	"accessors":[
		{
			"bufferView":0,
			"componentType":5126,
			"count":8129,
			"max":[
				0.9999995827674866,
				1,
				0.9999992251396179
			],
			"min":[
				-0.9999986886978149,
				-1,
				-0.9999983310699463
			],
			"type":"VEC3"
		},
		{
			"bufferView":1,
			"componentType":5126,
			"count":8129,
			"type":"VEC3"
		},
		{
			"bufferView":2,
			"componentType":5126,
			"count":8129,
			"type":"VEC2"
		},
		{
			"bufferView":3,
			"componentType":5123,
			"count":48384,
			"type":"SCALAR"
		}
	],
	"bufferViews":[
		{
			"buffer":0,
			"byteLength":97548,
			"byteOffset":0,
			"target":34962
		},
		{
			"buffer":0,
			"byteLength":97548,
			"byteOffset":97548,
			"target":34962
		},
		{
			"buffer":0,
			"byteLength":65032,
			"byteOffset":195096,
			"target":34962
		},
		{
			"buffer":0,
			"byteLength":96768,
			"byteOffset":260128,
			"target":34963
		}
	],
	"buffers":[
		{
			"byteLength":356896,
			"uri":"Energy_Sphere.bin"
		}
	]
}
